<svg version="1.1" id="Layer_1" xmlns="http://www.w3.org/2000/svg" xmlns:xlink="http://www.w3.org/1999/xlink" x="0px" y="0px"
	 width="100%" viewBox="0 0 215 55" enable-background="new 0 0 215 55" xml:space="preserve">
<path fill="#000000" opacity="1.000000" stroke="none" 
	d="
M141.000000,56.000000 
	C94.000008,56.000000 47.500023,56.000000 1.000025,56.000000 
	C1.000017,37.666683 1.000017,19.333364 1.000008,1.000035 
	C72.666634,1.000023 144.333267,1.000023 215.999939,1.000012 
	C215.999954,19.333296 215.999954,37.666592 215.999969,55.999947 
	C191.166672,56.000000 166.333328,56.000000 141.000000,56.000000 
M49.234810,46.871132 
	C47.291214,47.167969 45.352272,47.683075 43.403229,47.724651 
	C33.910080,47.927158 24.275026,49.439659 15.422484,44.145237 
	C9.161919,40.400990 8.001746,36.545231 11.128327,30.417261 
	C12.165219,28.384995 11.934569,25.706009 12.465700,22.077503 
	C1.028055,31.481260 2.084176,42.702236 11.266067,48.059147 
	C25.020195,56.083595 39.403244,55.092426 54.595783,51.251354 
	C61.840569,56.558861 73.095787,52.954067 75.643578,41.813183 
	C78.753754,38.849262 81.863922,35.885345 85.046547,33.752708 
	C84.508400,37.113945 84.041573,40.488613 83.411980,43.832630 
	C82.786842,47.152981 82.752693,50.218990 86.289589,51.985725 
	C91.307671,54.492336 96.608009,54.972713 101.713638,52.724045 
	C105.466331,51.071247 108.503136,48.254684 107.829865,43.477989 
	C107.160416,38.728462 103.442551,38.335033 99.640289,37.936726 
	C96.829071,37.642231 94.062355,36.922794 91.275818,36.392677 
	C91.300049,35.825279 91.324272,35.257885 91.348503,34.690487 
	C93.662186,34.396206 96.191872,34.586651 98.231636,33.677685 
	C100.481697,32.675011 102.748032,30.989988 104.144409,28.997478 
	C105.477455,27.095341 105.290955,24.168913 106.512711,22.138107 
	C108.123749,19.460220 107.227463,18.758797 104.727348,18.036072 
	C97.509193,15.949468 90.464638,15.042610 84.013351,19.228739 
	C85.712212,16.538246 84.695007,14.777023 82.308090,13.044137 
	C73.067017,6.335164 62.552605,6.578662 51.940716,7.218731 
	C51.715611,7.232310 51.511887,7.600351 51.180691,7.914478 
	C51.645012,9.227059 52.117805,10.563601 52.565086,11.828012 
	C64.395729,11.001435 70.553177,11.981343 77.460739,15.865411 
	C79.685318,17.116268 81.802383,18.558334 84.033485,20.859657 
	C83.896912,23.736307 83.760338,26.612959 82.931465,29.333447 
	C80.001595,31.560312 77.071716,33.787178 73.800888,35.411861 
	C68.845314,27.756868 61.112106,25.891594 54.401112,30.846798 
	C48.936279,34.881870 48.783775,40.503040 49.234810,46.871132 
M14.000000,23.450275 
	C14.000000,26.542042 14.000000,29.633810 14.000000,32.674278 
	C17.715265,32.674278 20.637617,32.674278 24.160337,32.674278 
	C24.160337,27.849052 24.160337,23.327950 24.160337,18.265141 
	C30.351028,23.161442 35.722828,27.749285 41.453018,31.834415 
	C46.005657,35.080055 50.020538,32.796200 49.964207,27.205904 
	C49.884613,19.308163 49.566708,11.412825 49.345585,3.330277 
	C45.416130,3.330277 42.352402,3.330277 39.320454,3.330277 
	C39.597103,8.115858 39.856247,12.598554 40.180691,18.210890 
	C37.444920,16.136353 35.746971,14.906821 34.112637,13.597862 
	C30.258997,10.511435 26.624197,7.096163 22.503845,4.426743 
	C20.937283,3.411827 18.023169,3.449013 16.215921,4.197038 
	C15.023053,4.690770 14.207696,7.274564 14.098089,8.978816 
	C13.809995,13.458312 14.000283,17.968576 14.000000,23.450275 
M204.765564,16.489683 
	C202.350815,16.739744 199.935410,16.983648 197.521561,17.242197 
	C196.090332,17.395498 194.522568,18.033350 193.257507,17.652269 
	C189.299835,16.460094 188.027725,18.186604 188.029526,21.778587 
	C188.033936,30.572392 187.898788,39.370060 188.155685,48.156353 
	C188.200455,49.687782 189.884689,51.171276 190.811707,52.676907 
	C191.871384,51.140995 193.556351,49.714241 193.847900,48.044228 
	C194.314545,45.371204 194.516541,43.774998 198.019440,44.382755 
	C205.611893,45.700066 210.143799,42.662891 212.263977,35.457520 
	C214.602554,27.509899 211.764633,19.666374 204.765564,16.489683 
M155.193451,38.444176 
	C158.977966,30.024647 156.616913,20.671803 149.926163,17.578794 
	C143.015106,14.383943 135.480713,16.449406 132.114517,22.461639 
	C128.516983,28.887049 130.106308,38.726143 135.347137,42.474037 
	C141.407013,46.807659 149.596619,45.400578 155.193451,38.444176 
M183.939499,39.956676 
	C183.950684,33.974625 184.179672,27.979776 183.829514,22.018959 
	C183.734558,20.402454 181.889771,18.888744 180.848129,17.327852 
	C179.909286,18.823797 178.334579,20.248901 178.158447,21.829821 
	C177.737518,25.607809 177.941269,29.459360 177.956741,33.280949 
	C177.974121,37.576565 175.077438,39.341415 171.585770,39.465519 
	C168.017136,39.592358 167.127518,36.569244 167.064667,33.502022 
	C166.986359,29.681280 167.304092,25.820711 166.834457,22.054199 
	C166.625900,20.381733 164.907578,18.897520 163.874573,17.327854 
	C162.927353,18.815025 161.277832,20.250385 161.163589,21.799007 
	C160.810043,26.591515 160.892242,31.433052 161.083237,36.244522 
	C161.315445,42.094810 166.280945,45.733173 172.083511,44.725914 
	C175.050003,44.210960 178.124771,44.245842 181.044144,43.571377 
	C182.140289,43.318130 182.934982,41.760067 183.939499,39.956676 
M109.772774,49.470306 
	C111.758728,49.979008 113.743866,50.920956 115.730774,50.924679 
	C126.938477,50.945705 138.146393,50.716618 149.354645,50.620899 
	C160.447678,50.526157 171.542633,50.558273 182.632614,50.332081 
	C183.930130,50.305614 185.201431,48.992420 186.484879,48.275738 
	C185.126816,47.810562 183.779129,46.976273 182.409058,46.937710 
	C169.706467,46.580170 156.992508,47.931103 144.289566,46.695896 
	C143.328842,46.602482 142.329315,46.739223 141.364944,46.883450 
	C138.357712,47.333195 134.867279,49.057217 132.452271,48.083820 
	C126.188385,45.559093 120.058327,47.648048 113.910019,47.325562 
	C112.530884,47.253223 111.093979,48.282173 109.772774,49.470306 
M126.896545,21.677343 
	C127.069824,20.299753 127.243103,18.922165 127.416374,17.544575 
	C123.227524,17.438028 119.028801,17.144968 114.857269,17.365713 
	C113.902069,17.416262 112.293327,19.210506 112.257019,20.246799 
	C112.019409,27.029366 112.018784,33.827961 112.247169,40.611000 
	C112.282433,41.658569 113.892403,42.653114 114.774132,43.672180 
	C115.808060,42.638294 117.547874,41.718353 117.736794,40.548065 
	C118.207016,37.635067 117.942741,34.607281 118.024254,31.626974 
	C118.199081,25.234480 119.972252,23.186600 126.896545,21.677343 
z"/>
<path fill="#C80000" opacity="1.000000" stroke="none" 
	d="
M14.000000,22.958429 
	C14.000283,17.968576 13.809995,13.458312 14.098089,8.978816 
	C14.207696,7.274564 15.023053,4.690770 16.215921,4.197038 
	C18.023169,3.449013 20.937283,3.411827 22.503845,4.426743 
	C26.624197,7.096163 30.258997,10.511435 34.112637,13.597862 
	C35.746971,14.906821 37.444920,16.136353 40.180691,18.210890 
	C39.856247,12.598554 39.597103,8.115858 39.320454,3.330277 
	C42.352402,3.330277 45.416130,3.330277 49.345585,3.330277 
	C49.566708,11.412825 49.884613,19.308163 49.964207,27.205904 
	C50.020538,32.796200 46.005657,35.080055 41.453018,31.834415 
	C35.722828,27.749285 30.351028,23.161442 24.160337,18.265141 
	C24.160337,23.327950 24.160337,27.849052 24.160337,32.674278 
	C20.637617,32.674278 17.715265,32.674278 14.000000,32.674278 
	C14.000000,29.633810 14.000000,26.542042 14.000000,22.958429 
z"/>
<path fill="#1D2929" opacity="1.000000" stroke="none" 
	d="
M83.623764,29.489609 
	C83.760338,26.612959 83.896912,23.736307 84.008484,20.417082 
	C83.983475,19.974506 83.922134,19.959681 83.922134,19.959681 
	C90.464638,15.042610 97.509193,15.949468 104.727348,18.036072 
	C107.227463,18.758797 108.123749,19.460220 106.512711,22.138107 
	C105.290955,24.168913 105.477455,27.095341 104.144409,28.997478 
	C102.748032,30.989988 100.481697,32.675011 98.231636,33.677685 
	C96.191872,34.586651 93.662186,34.396206 91.348503,34.690487 
	C91.324272,35.257885 91.300049,35.825279 91.275818,36.392677 
	C94.062355,36.922794 96.829071,37.642231 99.640289,37.936726 
	C103.442551,38.335033 107.160416,38.728462 107.829865,43.477989 
	C108.503136,48.254684 105.466331,51.071247 101.713638,52.724045 
	C96.608009,54.972713 91.307671,54.492336 86.289589,51.985725 
	C82.752693,50.218990 82.786842,47.152981 83.411980,43.832630 
	C84.041573,40.488613 84.508400,37.113945 85.019249,33.368446 
	C84.991951,32.984180 84.927055,32.990990 85.076851,32.959778 
	C85.336967,32.815620 85.447281,32.702675 85.557594,32.589729 
	C85.347412,32.396156 85.137230,32.202583 84.958969,32.006348 
	C84.990898,32.003681 84.982079,32.067142 84.971352,31.729956 
	C84.560699,30.606085 84.160774,29.819401 83.840958,29.181257 
	C83.921082,29.329798 83.623772,29.489609 83.623764,29.489609 
M90.833771,48.231216 
	C93.703827,48.177776 96.612679,48.353600 99.411629,47.879974 
	C99.980270,47.783752 100.134705,45.239700 100.480087,43.824097 
	C96.961693,43.700813 93.443306,43.577530 89.924911,43.454247 
	C90.012154,44.934452 90.099403,46.414654 90.833771,48.231216 
M90.266006,26.250528 
	C92.142891,27.376719 93.936836,29.064575 95.936417,29.359808 
	C96.766304,29.482340 98.971214,26.542976 98.843445,25.152964 
	C98.714157,23.746481 96.659744,21.780151 95.118027,21.400118 
	C92.275375,20.699408 90.459335,22.450127 90.266006,26.250528 
z"/>
<path fill="#1D2929" opacity="1.000000" stroke="none" 
	d="
M75.032639,42.119938 
	C73.095787,52.954067 61.840569,56.558861 54.158447,50.750877 
	C52.493626,48.989597 51.266140,47.728802 50.038654,46.468006 
	C48.783775,40.503040 48.936279,34.881870 54.401112,30.846798 
	C61.112106,25.891594 68.845314,27.756868 73.918518,36.112850 
	C74.368309,38.582539 74.700478,40.351238 75.032639,42.119938 
z"/>
<path fill="#1D2929" opacity="1.000000" stroke="none" 
	d="
M205.133331,16.627914 
	C211.764633,19.666374 214.602554,27.509899 212.263977,35.457520 
	C210.143799,42.662891 205.611893,45.700066 198.019440,44.382755 
	C194.516541,43.774998 194.314545,45.371204 193.847900,48.044228 
	C193.556351,49.714241 191.871384,51.140995 190.811707,52.676910 
	C189.884689,51.171276 188.200455,49.687782 188.155685,48.156353 
	C187.898788,39.370060 188.033936,30.572392 188.029526,21.778587 
	C188.027725,18.186604 189.299835,16.460094 193.257507,17.652269 
	C194.522568,18.033350 196.090332,17.395498 197.521561,17.242197 
	C199.935410,16.983648 202.350815,16.739744 205.133331,16.627914 
M194.083359,33.994099 
	C194.362732,37.568096 196.405960,39.553345 199.874191,39.526844 
	C203.762115,39.497135 206.449707,35.115864 206.211014,29.760082 
	C205.972885,24.416887 203.724136,21.250090 200.272461,21.397127 
	C196.668808,21.550640 194.131790,25.090139 194.018112,30.147442 
	C193.995712,31.143944 194.030869,32.141743 194.083359,33.994099 
z"/>
<path fill="#1D2929" opacity="1.000000" stroke="none" 
	d="
M155.014923,38.784855 
	C149.596619,45.400578 141.407013,46.807659 135.347137,42.474037 
	C130.106308,38.726143 128.516983,28.887049 132.114517,22.461639 
	C135.480713,16.449406 143.015106,14.383943 149.926163,17.578794 
	C156.616913,20.671803 158.977966,30.024647 155.014923,38.784855 
M137.165802,33.864056 
	C139.559052,39.337196 143.598297,41.112495 147.468079,38.392044 
	C152.000061,35.206059 151.773575,25.755920 147.091553,22.682316 
	C143.294952,20.189962 138.743240,21.952602 137.501663,26.656176 
	C136.967178,28.680971 137.200241,30.908369 137.165802,33.864056 
z"/>
<path fill="#1D2929" opacity="1.000000" stroke="none" 
	d="
M183.903305,40.376778 
	C182.934982,41.760067 182.140289,43.318130 181.044144,43.571377 
	C178.124771,44.245842 175.050003,44.210960 172.083511,44.725914 
	C166.280945,45.733173 161.315445,42.094810 161.083237,36.244522 
	C160.892242,31.433052 160.810043,26.591515 161.163589,21.799007 
	C161.277832,20.250385 162.927353,18.815025 163.874573,17.327856 
	C164.907578,18.897520 166.625900,20.381733 166.834457,22.054199 
	C167.304092,25.820711 166.986359,29.681280 167.064667,33.502022 
	C167.127518,36.569244 168.017136,39.592358 171.585770,39.465519 
	C175.077438,39.341415 177.974121,37.576565 177.956741,33.280949 
	C177.941269,29.459360 177.737518,25.607809 178.158447,21.829821 
	C178.334579,20.248901 179.909286,18.823797 180.848129,17.327854 
	C181.889771,18.888744 183.734558,20.402454 183.829514,22.018959 
	C184.179672,27.979776 183.950684,33.974625 183.903305,40.376778 
z"/>
<path fill="#C80000" opacity="1.000000" stroke="none" 
	d="
M49.636734,46.669571 
	C51.266140,47.728802 52.493626,48.989597 53.850712,50.553135 
	C39.403244,55.092426 25.020195,56.083595 11.266067,48.059147 
	C2.084176,42.702236 1.028055,31.481260 12.465700,22.077503 
	C11.934569,25.706009 12.165219,28.384995 11.128327,30.417261 
	C8.001746,36.545231 9.161919,40.400990 15.422484,44.145237 
	C24.275026,49.439659 33.910080,47.927158 43.403229,47.724651 
	C45.352272,47.683075 47.291214,47.167969 49.636734,46.669571 
z"/>
<path fill="#1D2929" opacity="1.000000" stroke="none" 
	d="
M109.728226,49.137215 
	C111.093979,48.282173 112.530884,47.253223 113.910019,47.325562 
	C120.058327,47.648048 126.188385,45.559093 132.452271,48.083820 
	C134.867279,49.057217 138.357712,47.333195 141.364944,46.883450 
	C142.329315,46.739223 143.328842,46.602482 144.289566,46.695896 
	C156.992508,47.931103 169.706467,46.580170 182.409058,46.937710 
	C183.779129,46.976273 185.126816,47.810562 186.484879,48.275742 
	C185.201431,48.992420 183.930130,50.305614 182.632614,50.332081 
	C171.542633,50.558273 160.447678,50.526157 149.354645,50.620899 
	C138.146393,50.716618 126.938477,50.945705 115.730774,50.924679 
	C113.743866,50.920956 111.758728,49.979008 109.728226,49.137215 
z"/>
<path fill="#1D2929" opacity="1.000000" stroke="none" 
	d="
M126.601761,21.829144 
	C119.972252,23.186600 118.199081,25.234480 118.024254,31.626974 
	C117.942741,34.607281 118.207016,37.635067 117.736794,40.548065 
	C117.547874,41.718353 115.808060,42.638294 114.774132,43.672180 
	C113.892403,42.653114 112.282433,41.658569 112.247169,40.611000 
	C112.018784,33.827961 112.019409,27.029366 112.257019,20.246799 
	C112.293327,19.210506 113.902069,17.416262 114.857269,17.365713 
	C119.028801,17.144968 123.227524,17.438028 127.416374,17.544575 
	C127.243103,18.922165 127.069824,20.299753 126.601761,21.829144 
z"/>
<path fill="#C80000" opacity="1.000000" stroke="none" 
	d="
M83.976051,19.943716 
	C81.802383,18.558334 79.685318,17.116268 77.460739,15.865411 
	C70.553177,11.981343 64.395729,11.001435 52.565086,11.828012 
	C52.117805,10.563601 51.645012,9.227059 51.180691,7.914478 
	C51.511887,7.600351 51.715611,7.232310 51.940716,7.218731 
	C62.552605,6.578662 73.067017,6.335164 82.308090,13.044137 
	C84.695007,14.777023 85.712212,16.538246 83.967743,19.594210 
	C83.922134,19.959681 83.983475,19.974506 83.976051,19.943716 
z"/>
<path fill="#C80000" opacity="1.000000" stroke="none" 
	d="
M75.338104,41.966560 
	C74.700478,40.351238 74.368309,38.582539 74.088997,36.413940 
	C77.071716,33.787178 80.001595,31.560312 83.277618,29.411528 
	C83.623772,29.489609 83.921082,29.329798 83.697266,29.519854 
	C83.976326,30.495655 84.479202,31.281399 84.982079,32.067142 
	C84.982079,32.067142 84.990898,32.003681 84.979095,32.251991 
	C84.967300,32.500298 84.927055,32.990990 84.927055,32.990990 
	C84.927055,32.990990 84.991951,32.984180 84.983025,32.952805 
	C81.863922,35.885345 78.753754,38.849262 75.338104,41.966560 
z"/>
<path fill="#000000" opacity="1.000000" stroke="none" 
	d="
M90.510208,48.063038 
	C90.099403,46.414654 90.012154,44.934452 89.924911,43.454247 
	C93.443306,43.577530 96.961693,43.700813 100.480087,43.824097 
	C100.134705,45.239700 99.980270,47.783752 99.411629,47.879974 
	C96.612679,48.353600 93.703827,48.177776 90.510208,48.063038 
z"/>
<path fill="#000000" opacity="1.000000" stroke="none" 
	d="
M90.241753,25.875088 
	C90.459335,22.450127 92.275375,20.699408 95.118027,21.400118 
	C96.659744,21.780151 98.714157,23.746481 98.843445,25.152964 
	C98.971214,26.542976 96.766304,29.482340 95.936417,29.359808 
	C93.936836,29.064575 92.142891,27.376719 90.241753,25.875088 
z"/>
<path fill="#000000" opacity="1.000000" stroke="none" 
	d="
M84.971352,31.729956 
	C84.479202,31.281399 83.976326,30.495655 83.617149,29.371313 
	C84.160774,29.819401 84.560699,30.606085 84.971352,31.729956 
z"/>
<path fill="#000000" opacity="1.000000" stroke="none" 
	d="
M85.076851,32.959778 
	C84.927055,32.990990 84.967300,32.500298 84.947174,32.254654 
	C85.137230,32.202583 85.347412,32.396156 85.557594,32.589729 
	C85.447281,32.702675 85.336967,32.815620 85.076851,32.959778 
z"/>
<path fill="#000000" opacity="1.000000" stroke="none" 
	d="
M194.061432,33.566521 
	C194.030869,32.141743 193.995712,31.143944 194.018112,30.147442 
	C194.131790,25.090139 196.668808,21.550640 200.272461,21.397127 
	C203.724136,21.250090 205.972885,24.416887 206.211014,29.760082 
	C206.449707,35.115864 203.762115,39.497135 199.874191,39.526844 
	C196.405960,39.553345 194.362732,37.568096 194.061432,33.566521 
z"/>
<path fill="#000000" opacity="1.000000" stroke="none" 
	d="
M137.125214,33.453888 
	C137.200241,30.908369 136.967178,28.680971 137.501663,26.656176 
	C138.743240,21.952602 143.294952,20.189962 147.091553,22.682316 
	C151.773575,25.755920 152.000061,35.206059 147.468079,38.392044 
	C143.598297,41.112495 139.559052,39.337196 137.125214,33.453888 
z"/>
</svg>